<svg xmlns="http://www.w3.org/2000/svg" viewBox="0 0 64 64">
  <rect width="64" height="64" rx="16" fill="#EFF6FF"/>
  <path d="M17 17.5c5-2.6 10.5-2.5 16 .2 1 .5 1.6 1.4 1.6 2.5v29.5c0 1.2-1.2 2-2.2 1.5-5.2-2.5-10.3-2.5-15.4 0-1 .5-2.1-.3-2.1-1.5V20c0-1 .8-2 2.1-2.5Z" fill="none" stroke="#2563EB" stroke-width="4" stroke-linecap="round" stroke-linejoin="round"/>
  <path d="M34.5 20.2c5.1-2.5 10.2-2.5 15.3 0 1 .5 1.7 1.4 1.7 2.5v27c0 1.2-1.2 2-2.2 1.5-4.9-2.3-9.9-2.4-14.8-.3" fill="none" stroke="#2563EB" stroke-width="4" stroke-linecap="round" stroke-linejoin="round"/>
  <path d="M43 31.8l2.9 3 5-5.8" fill="none" stroke="#2563EB" stroke-width="4" stroke-linecap="round" stroke-linejoin="round"/>
</svg>
